<svg aria-hidden="true" class="" fill="currentColor" height="26" width="116" xmlns="http://www.w3.org/2000/svg"><g clip-path="url(#white-logo_svg__a)"><mask height="26" id="white-logo_svg__b" maskUnits="userSpaceOnUse" style="mask-type:luminance" width="116" x="0" y="0"><path d="M115.037.5H.961v25h114.076z" fill="#fff"></path></mask><g fill="#fff" mask="url(#white-logo_svg__b)"><path d="M80.595 25.492H70.156v-1.253c.29-.027.714-.067 1.273-.108.56-.04.95-.121 1.172-.209.364-.161.626-.363.788-.633.162-.263.243-.633.243-1.104V4.128c0-.417-.061-.754-.182-1.03-.115-.283-.398-.512-.849-.7A7.607 7.607 0 0 0 71.368 2a7.375 7.375 0 0 0-1.212-.215V.512h10.44v1.266c-.337.013-.742.054-1.213.128a8.69 8.69 0 0 0-1.226.29c-.41.14-.693.377-.828.686a2.476 2.476 0 0 0-.216 1.058v18.056c0 .39.081.734.243 1.037.155.29.424.54.801.714.23.095.606.195 1.118.31.519.108.957.175 1.314.189v1.252zM48.84 25.493h-9.638V24.26c.849-.06 1.556-.168 2.115-.343.559-.176.842-.384.842-.64 0-.108-.007-.236-.034-.384a1.914 1.914 0 0 0-.094-.397l-1.926-5.53h-8.143c-.31.808-.559 1.522-.748 2.128-.188.6-.356 1.159-.511 1.664a11.84 11.84 0 0 0-.297 1.219c-.054.31-.08.559-.08.761 0 .458.343.815 1.03 1.078.687.256 1.455.404 2.317.45V25.5h-8.736v-1.232c.283-.02.64-.088 1.065-.202.424-.115.774-.256 1.044-.438a4.464 4.464 0 0 0 1.017-.99c.235-.337.47-.815.7-1.414a1036.37 1036.37 0 0 0 3.859-10.412C34.03 6.958 35.289 3.53 36.38.52h1.313l7.732 21.241c.162.458.35.822.552 1.105.21.276.499.552.87.815.248.162.572.303.976.404.404.114.747.175 1.017.182v1.232zm-9.328-10.07-3.516-9.556-3.455 9.557z"></path><path d="m68.22 17.666-.78 7.825H48.508v-.612l14.837-22.96H57.91c-.633 0-1.159.014-1.583.034a6.62 6.62 0 0 0-1.165.148c-.734.142-1.556.788-2.465 1.926a12.716 12.716 0 0 0-2.068 3.583h-1.158l.707-7.098H67.83v.633L53.007 24.11h5.59c.943 0 1.94-.081 3.003-.209 1.065-.148 1.752-.384 2.075-.734.72-.734 1.387-1.63 2.014-2.68.62-1.058 1.077-2 1.374-2.816h1.165zM115.039 25.492h-10.446v-1.253c.289-.027.72-.067 1.273-.108.552-.04.949-.121 1.178-.209.357-.161.62-.363.781-.633.162-.263.243-.633.243-1.104V4.128c0-.417-.061-.754-.182-1.03-.121-.283-.404-.512-.849-.7A8.054 8.054 0 0 0 105.805 2c-.498-.121-.903-.195-1.219-.215V.512h10.446v1.266c-.344.013-.741.054-1.212.128-.465.08-.876.175-1.226.29-.411.14-.687.377-.835.686a2.685 2.685 0 0 0-.202 1.058v18.056c0 .39.074.734.235 1.037.162.29.425.54.808.714.229.095.607.195 1.125.31.519.108.963.175 1.32.189v1.252zM102.678 17.666l-.768 7.825H83.281v-.612L97.87 1.919h-5.34c-.627 0-1.146.014-1.563.034-.418.02-.802.067-1.145.148-.727.142-1.536.788-2.431 1.926-.896 1.132-1.576 2.33-2.034 3.583h-1.139l.694-7.098h17.376v.633L87.693 24.11h5.509c.922 0 1.913-.081 2.956-.209 1.051-.148 1.731-.384 2.048-.734.714-.734 1.367-1.63 1.973-2.68.613-1.058 1.064-2 1.354-2.816h1.145zM22.445.5H.961v2.936h21.484zM22.445 6.016H.961v2.936h21.484zM22.445 11.531H.961v2.937h21.484zM22.445 17.047H.961v2.936h21.484zM22.445 22.563H.961v2.936h21.484z"></path></g></g><defs><clipPath id="white-logo_svg__a"><path d="M.96.5h114.077v25H.96z" fill="#fff"></path></clipPath></defs></svg>