<?xml version="1.0" encoding="utf-8"?>
<svg version="1.1" id="layer" xmlns="http://www.w3.org/2000/svg" x="0px" y="0px" viewBox="20 245 620 95" xml:space="preserve">
<g fill="#ffffff">
  <path d="M624.6,254.6l0.3-0.6h-52.6c-15.5,0-28.7,3.2-39.6,9.5c-10.9,6.4-18.7,15.2-23.5,26.7c-3,7.3-3.9,13.9-2.6,19.9
    c1.5,6.3,5.4,10.7,11.6,13.5c5.7,2.5,15.2,3.7,28.6,3.7h47.5l4.7-11.6h-26.7c-12.9,0-21.5-1.7-25.8-5c-4.7-3.6-4.2-11.9-0.5-20.7
    c6.4-15.2,19.7-24.7,38.2-24.7h20.7l-4.8,11.4h15.8l9.2-22H624.6z M440.4,297.9l32-31.1l6.6,31.1H440.4z M168.3,298l31.2-29.8
    l5.6,29.8H168.3z M469.7,253.9L469.7,253.9l-19.5,0.1l-75,70.2l29.3-70.1h-32.1l-38.8,30.4l-20,16.4h-0.9l9.4-23.9L310.6,254h-32.3
    L249,324.2L232,254h-35.4l-78.1,73.2h19.5l20-19.1h49.2l3.9,19.1h52.3l18.9-45.3c1-2.3,1.9-4.9,2.8-7.8c0.1,2.4,0.7,4.9,1.9,7.5
    l16.6,37.8h2.8l47.6-37.6c1.8-1.4,4.5-4,8.1-7.7c-1.8,3.4-3.1,6-3.9,7.8l-18.9,45.3h34.5l0,0h36.4l19.7-19.2h51.1l4.1,19.2h18
    l-17.5-73.3H469.7z M127.2,310c6.3-6,10.9-12.6,14-19.9c4.8-11.4,4.4-20.3-1.2-26.7c-5.6-6.3-16.2-9.5-31.7-9.5H55.8L51,265.4h36.2
    c18.5,0,23.8,9.2,17.4,24.4c-3.7,8.8-6.9,16.9-14.6,20.5c-7,3.3-14.3,4.3-27.2,4.3l-16.7,0L58.6,285H42.8l-17.7,42.2h47.6
    c13.4,0,23.9-1.2,31.7-3.7C112.9,320.7,120.5,316.3,127.2,310"/>
</g>
</svg>
