<svg xmlns="http://www.w3.org/2000/svg" width="78" height="21" fill="none" viewBox="0 0 78 21" role="img" aria-label="Object 1 logo">
  <path d="M3.78 10.504c.168.646.407 1.22.766 1.723.335.502.79.933 1.364 1.244.55.31 1.244.454 2.034.454.79 0 1.483-.143 2.033-.454a3.997 3.997 0 001.364-1.245 5.91 5.91 0 00.766-1.722c.167-.646.24-1.292.24-1.986 0-.718-.073-1.388-.24-2.058-.168-.67-.407-1.244-.766-1.77a3.79 3.79 0 00-1.364-1.245c-.55-.31-1.244-.454-2.033-.454-.79 0-1.484.143-2.034.454A3.997 3.997 0 004.546 4.69a5.923 5.923 0 00-.766 1.77 8.378 8.378 0 00-.239 2.058c0 .694.096 1.34.24 1.986zM.55 5.168a8.163 8.163 0 011.556-2.704C2.776 1.7 3.613 1.101 4.594.646 5.599.216 6.699 0 7.944 0c1.244 0 2.368.215 3.35.646.98.43 1.818 1.029 2.488 1.818a8.163 8.163 0 011.555 2.704 10.14 10.14 0 01.55 3.35 9.96 9.96 0 01-.55 3.302 7.71 7.71 0 01-1.555 2.656c-.67.765-1.508 1.34-2.489 1.77-.98.43-2.105.646-3.35.646-1.244 0-2.344-.215-3.325-.646a7.246 7.246 0 01-2.489-1.77C1.46 13.734.933 12.825.574 11.82A9.392 9.392 0 010 8.518c0-1.196.191-2.321.55-3.35zm24.692 4.116a3.17 3.17 0 00-.502-1.197 2.794 2.794 0 00-.837-.837 2.454 2.454 0 00-1.245-.311c-.478 0-.885.095-1.22.31a2.617 2.617 0 00-.861.838 4.191 4.191 0 00-.503 1.197 6.938 6.938 0 00-.167 1.435c0 .479.048.957.167 1.412.096.454.263.861.503 1.196.215.359.502.622.861.838.335.215.742.31 1.22.31.479 0 .886-.095 1.245-.31a2.55 2.55 0 00.837-.838c.215-.335.383-.742.503-1.196.095-.455.167-.91.167-1.412a8.448 8.448 0 00-.168-1.435zM20.026.383v5.886h.048a3.334 3.334 0 011.603-1.316 5.208 5.208 0 012.082-.407c.598 0 1.172.12 1.747.359.574.24 1.1.622 1.555 1.1.454.503.837 1.125 1.125 1.915.287.765.43 1.698.43 2.775s-.143 1.986-.43 2.776c-.288.765-.67 1.411-1.125 1.914a4.313 4.313 0 01-1.555 1.1 4.477 4.477 0 01-1.747.36c-.861 0-1.627-.144-2.297-.407a2.894 2.894 0 01-1.531-1.388h-.048v1.483H16.82V.383h3.206zm9.787 0h3.206v2.656h-3.206V.383zm-1.245 17.586c.335 0 .622-.072.862-.192.239-.12.383-.406.383-.837V4.833h3.206v12.25c0 .599-.072 1.125-.192 1.556a2.54 2.54 0 01-.646 1.1c-.31.288-.717.503-1.244.646-.526.144-1.196.216-2.01.216a4.56 4.56 0 01-1.029-.096v-2.608c.144.048.383.072.67.072zM41.73 7.585c-.383-.431-.957-.623-1.747-.623-.502 0-.933.096-1.268.264-.335.167-.622.383-.814.646a2.07 2.07 0 00-.43.813c-.072.287-.144.55-.144.766h5.216c-.143-.838-.43-1.46-.813-1.866zm-3.613 6.149c.478.478 1.172.694 2.082.694.645 0 1.196-.168 1.674-.479.479-.335.766-.67.862-1.029h2.823c-.455 1.412-1.148 2.417-2.082 3.015-.933.598-2.057.91-3.397.91-.91 0-1.747-.144-2.489-.431a5.113 5.113 0 01-1.866-1.245 6.145 6.145 0 01-1.196-1.938c-.287-.765-.407-1.579-.407-2.488 0-.885.144-1.699.43-2.44a5.904 5.904 0 011.221-1.963 5.536 5.536 0 011.89-1.292 6.167 6.167 0 012.44-.478c1.006 0 1.867.191 2.609.574.742.383 1.34.91 1.818 1.555.479.646.814 1.388 1.029 2.225.215.838.287 1.7.215 2.609h-8.446c.024.98.287 1.722.79 2.2zm13.997-6.795c-.502 0-.933.12-1.292.359a2.548 2.548 0 00-.837.909 3.397 3.397 0 00-.455 1.22 6.327 6.327 0 00-.143 1.316c0 .43.048.861.143 1.292.096.43.24.838.431 1.197.192.358.479.646.814.86.335.216.765.336 1.268.336.765 0 1.364-.216 1.77-.646.407-.43.67-1.005.79-1.723h3.086c-.215 1.555-.813 2.728-1.818 3.541-1.005.814-2.273 1.22-3.828 1.22a6.575 6.575 0 01-2.417-.43c-.742-.287-1.364-.694-1.866-1.244a5.667 5.667 0 01-1.197-1.89 6.577 6.577 0 01-.43-2.417c0-.91.143-1.747.407-2.512a5.634 5.634 0 011.172-2.01c.502-.575 1.148-1.005 1.866-1.316.742-.311 1.58-.479 2.536-.479a7.98 7.98 0 012.01.263c.646.192 1.22.455 1.723.814.502.359.91.837 1.244 1.388.311.55.503 1.196.55 1.962h-3.134c-.24-1.34-1.029-2.01-2.392-2.01zm12.68-2.106v2.154H62.45v5.79c0 .55.096.909.264 1.077.191.19.55.263 1.076.263.192 0 .36 0 .527-.024.167-.024.335-.048.478-.072v2.488a8.88 8.88 0 01-.909.096c-.335.024-.646.024-.981.024a8.91 8.91 0 01-1.412-.096c-.454-.072-.837-.191-1.172-.407-.335-.19-.598-.478-.814-.837-.191-.359-.287-.837-.287-1.435V6.987h-1.938V4.833h1.938V1.34h3.23v3.493h2.345zm9.998 11.7V6.27H70.82V3.852a7.35 7.35 0 001.627-.12 4.01 4.01 0 001.412-.526 3.43 3.43 0 001.053-.98c.287-.408.478-.91.574-1.508h2.512v15.84h-3.206v-.025z" fill="#ffffff"/>
</svg>