<svg xmlns="http://www.w3.org/2000/svg" version="1.1" viewBox="60.62 70.6 680.38 224.47"><path d="M 94.500 71.076 C 83.954 72.645, 77.074 75.823, 70.961 81.949 C 62.674 90.254, 60.782 99.934, 65.143 111.712 C 67.984 119.385, 77.876 129.136, 96.511 142.630 C 113.101 154.643, 120.482 161.588, 124.361 168.834 C 126.882 173.543, 127.171 174.974, 126.827 181.052 C 126.390 188.784, 124.884 191.527, 118.298 196.584 C 110.548 202.533, 95.592 203.535, 81.938 199.019 C 76.064 197.076, 71.734 194.822, 63.561 189.453 L 60.621 187.522 64.561 194.833 C 69.018 203.106, 70.555 204.201, 81.718 207.056 C 91.966 209.677, 106.124 209.654, 116.504 206.999 C 129.101 203.777, 136.770 198.510, 141.498 189.833 C 143.908 185.409, 144.474 183.028, 144.819 175.860 C 145.745 156.598, 138.965 147.747, 105.500 124.531 C 97.800 119.189, 89.535 112.947, 87.133 110.659 C 77.534 101.517, 76.562 91.123, 84.608 83.663 C 92.704 76.156, 111.306 76.026, 125.936 83.374 L 131.189 86.013 127.689 79.756 C 124.545 74.138, 123.745 73.387, 119.844 72.390 C 113.240 70.703, 101.203 70.078, 94.500 71.076 M 226.500 76.886 C 202.885 83.750, 187.082 101.378, 181.822 126.726 C 178.285 143.766, 180.383 160.073, 188.153 175.942 C 202.753 205.757, 240.234 217.862, 270.022 202.382 C 296.874 188.427, 310.045 152.731, 300.421 119.990 C 294.236 98.948, 276.113 81.304, 255.754 76.504 C 247.397 74.534, 233.992 74.709, 226.500 76.886 M 685.542 78.126 C 683.333 82.953, 633 206.067, 633 206.642 C 633 206.905, 634.663 206.981, 636.697 206.810 L 640.393 206.500 648.033 188 L 655.673 169.500 680.934 169.500 L 706.195 169.500 713.810 188.250 L 721.424 207 731.212 207 C 736.595 207, 741 206.634, 741 206.188 C 741 205.741, 733.991 188.303, 725.424 167.438 C 716.857 146.572, 704.902 117.358, 698.858 102.517 C 692.813 87.677, 687.692 75.358, 687.477 75.143 C 687.262 74.928, 686.391 76.271, 685.542 78.126 M 350 141.887 L 350 207 372.250 206.965 C 397.444 206.926, 406.167 205.787, 416 201.254 C 424.663 197.259, 430.281 192.168, 433.684 185.224 C 436.088 180.319, 436.490 178.282, 436.495 170.982 C 436.499 163.368, 436.151 161.755, 433.213 155.785 C 428.232 145.662, 419.792 138.943, 407.051 134.960 L 401.602 133.257 404.861 131.572 C 409.660 129.090, 415.886 123.144, 417.977 119.045 C 423.964 107.309, 420.055 92.199, 409.167 84.987 C 400.218 79.059, 393.771 77.759, 370.750 77.241 L 350 76.773 350 141.887 M 485 142 L 485 207 494.500 207 L 504 207 504 172.500 L 504 138 538.500 138 L 573 138 573 172.536 L 573 207.072 582.511 206.786 L 592.021 206.500 592.042 142 L 592.062 77.500 582.531 77.214 L 573 76.928 573 103.464 L 573 130 538.500 130 L 504 130 504 103.500 L 504 77 494.500 77 L 485 77 485 142 M 233.746 83.023 C 223.148 85.698, 212.760 94.590, 207.073 105.855 C 201.010 117.867, 198.171 136.307, 199.977 151.962 C 203.058 178.682, 214.150 195.287, 232.428 200.541 C 248.960 205.294, 267.765 196.238, 276.287 179.421 C 282.137 167.876, 283.500 160.899, 283.500 142.500 C 283.500 129.367, 283.098 124.021, 281.733 119 C 275.843 97.330, 261.761 83.544, 244.444 82.496 C 240.625 82.265, 235.811 82.502, 233.746 83.023 M 369 141.850 L 369 200 377.668 200 C 389.879 200, 397.973 198.368, 404.192 194.652 C 408.602 192.016, 410.052 190.367, 412.931 184.712 C 416.027 178.630, 416.385 177.085, 416.404 169.716 C 416.431 159.092, 414.213 152.565, 408.364 146.060 C 404.343 141.587, 396.853 137.006, 389.500 134.522 C 387.673 133.904, 387.759 133.713, 390.500 132.301 C 398.105 128.386, 401.781 121.997, 402.694 111.108 C 403.478 101.760, 401.678 94.745, 397.398 90.465 C 393.374 86.440, 389.366 85.191, 377.750 84.341 L 369 83.701 369 141.850 M 670.221 133.750 C 664.649 147.363, 659.797 159.287, 659.438 160.250 C 658.830 161.883, 660.225 162, 680.226 162 C 692.019 162, 701.897 161.770, 702.179 161.488 C 702.776 160.891, 681.779 109.059, 680.926 109.024 C 680.611 109.011, 675.793 120.137, 670.221 133.750 M 377.605 279.087 C 374.522 286.896, 372 293.671, 372 294.142 C 372 294.614, 373.314 295, 374.921 295 C 377.353 295, 377.951 294.498, 378.500 292 C 379.152 289.031, 379.227 289, 385.860 289 C 392.388 289, 392.591 289.078, 393.694 292 C 394.614 294.439, 395.402 295, 397.905 295 L 400.984 295 399.504 291.250 C 398.690 289.188, 396.093 282.550, 393.733 276.500 C 389.635 265.996, 389.301 265.486, 386.326 265.194 L 383.210 264.889 377.605 279.087 M 301 280.500 L 301 295 304 295 C 306.970 295, 307 294.944, 307 289.500 L 307 284 310.250 284.028 C 313.106 284.053, 313.902 284.720, 316.812 289.528 C 319.617 294.165, 320.572 295, 323.062 295 C 324.678 295, 326 294.805, 326 294.566 C 326 294.328, 324.622 291.916, 322.937 289.206 L 319.875 284.279 323.063 281.091 C 325.910 278.244, 326.190 277.456, 325.688 273.712 C 324.806 267.132, 322.634 266, 310.889 266 L 301 266 301 280.500 M 340 280.533 L 340 295.066 351.250 294.783 C 361.739 294.519, 362.500 294.365, 362.500 292.500 C 362.500 290.685, 361.737 290.473, 354.250 290.210 L 346 289.919 346 286.507 L 346 283.095 352.250 282.798 C 357.864 282.530, 358.533 282.271, 358.820 280.250 C 359.123 278.113, 358.810 278, 352.570 278 L 346 278 346 273.928 L 346 269.856 351.396 270.530 C 358.553 271.425, 363 270.424, 363 267.921 C 363 266.138, 362.175 266, 351.500 266 L 340 266 340 280.533 M 413 280.500 L 413 295 423.500 295 L 434 295 434 292.500 C 434 290.056, 433.833 290, 426.500 290 L 419 290 419 278 L 419 266 416 266 L 413 266 413 280.500 M 440 268.500 C 440 270.833, 440.333 271, 445 271 L 450 271 450 283 L 450 295 453 295 L 456 295 456 283 L 456 271 461 271 C 465.667 271, 466 270.833, 466 268.500 L 466 266 453 266 L 440 266 440 268.500 M 476 266.611 C 476 266.947, 478.250 270.947, 481 275.500 C 485.422 282.822, 486 284.426, 486 289.389 C 486 294.957, 486.023 295, 489 295 C 491.965 295, 492 294.936, 492 289.573 C 492 284.801, 492.615 283.143, 497.102 275.823 C 499.908 271.246, 502.410 267.163, 502.661 266.750 C 502.912 266.337, 501.629 266.005, 499.809 266.012 C 496.801 266.023, 496.200 266.570, 493.196 272.038 C 491.379 275.346, 489.495 277.806, 489.008 277.505 C 488.521 277.204, 486.712 274.492, 484.988 271.479 C 482.312 266.803, 481.425 266, 478.927 266 C 477.317 266, 476 266.275, 476 266.611 M 307 275.124 L 307 280.248 312.592 279.784 C 318.445 279.299, 319.958 278.161, 319.985 274.225 C 320.003 271.521, 316.746 270, 310.935 270 L 307 270 307 275.124 M 383.735 277.884 C 381.333 284.647, 381.445 285, 386 285 C 388.531 285, 390.002 284.541, 390.005 283.750 C 390.012 281.946, 386.710 273, 386.037 273 C 385.725 273, 384.689 275.198, 383.735 277.884" stroke="none" fill="#090909" fill-rule="evenodd"/><path d="M 0 182.501 L 0 365.002 400.250 364.751 L 800.500 364.500 800.753 182.250 L 801.005 0 400.503 0 L 0 0 0 182.501 M 0.489 183 C 0.489 283.375, 0.607 324.438, 0.750 274.250 C 0.893 224.063, 0.893 141.938, 0.750 91.750 C 0.607 41.563, 0.489 82.625, 0.489 183 M 94.500 71.076 C 83.954 72.645, 77.074 75.823, 70.961 81.949 C 62.674 90.254, 60.782 99.934, 65.143 111.712 C 67.984 119.385, 77.876 129.136, 96.511 142.630 C 113.101 154.643, 120.482 161.588, 124.361 168.834 C 126.882 173.543, 127.171 174.974, 126.827 181.052 C 126.390 188.784, 124.884 191.527, 118.298 196.584 C 110.548 202.533, 95.592 203.535, 81.938 199.019 C 76.064 197.076, 71.734 194.822, 63.561 189.453 L 60.621 187.522 64.561 194.833 C 69.018 203.106, 70.555 204.201, 81.718 207.056 C 91.966 209.677, 106.124 209.654, 116.504 206.999 C 129.101 203.777, 136.770 198.510, 141.498 189.833 C 143.908 185.409, 144.474 183.028, 144.819 175.860 C 145.745 156.598, 138.965 147.747, 105.500 124.531 C 97.800 119.189, 89.535 112.947, 87.133 110.659 C 77.534 101.517, 76.562 91.123, 84.608 83.663 C 92.704 76.156, 111.306 76.026, 125.936 83.374 L 131.189 86.013 127.689 79.756 C 124.545 74.138, 123.745 73.387, 119.844 72.390 C 113.240 70.703, 101.203 70.078, 94.500 71.076 M 226.500 76.886 C 202.885 83.750, 187.082 101.378, 181.822 126.726 C 178.285 143.766, 180.383 160.073, 188.153 175.942 C 202.753 205.757, 240.234 217.862, 270.022 202.382 C 296.874 188.427, 310.045 152.731, 300.421 119.990 C 294.236 98.948, 276.113 81.304, 255.754 76.504 C 247.397 74.534, 233.992 74.709, 226.500 76.886 M 685.542 78.126 C 683.333 82.953, 633 206.067, 633 206.642 C 633 206.905, 634.663 206.981, 636.697 206.810 L 640.393 206.500 648.033 188 L 655.673 169.500 680.934 169.500 L 706.195 169.500 713.810 188.250 L 721.424 207 731.212 207 C 736.595 207, 741 206.634, 741 206.188 C 741 205.741, 733.991 188.303, 725.424 167.438 C 716.857 146.572, 704.902 117.358, 698.858 102.517 C 692.813 87.677, 687.692 75.358, 687.477 75.143 C 687.262 74.928, 686.391 76.271, 685.542 78.126 M 350 141.887 L 350 207 372.250 206.965 C 397.444 206.926, 406.167 205.787, 416 201.254 C 424.663 197.259, 430.281 192.168, 433.684 185.224 C 436.088 180.319, 436.490 178.282, 436.495 170.982 C 436.499 163.368, 436.151 161.755, 433.213 155.785 C 428.232 145.662, 419.792 138.943, 407.051 134.960 L 401.602 133.257 404.861 131.572 C 409.660 129.090, 415.886 123.144, 417.977 119.045 C 423.964 107.309, 420.055 92.199, 409.167 84.987 C 400.218 79.059, 393.771 77.759, 370.750 77.241 L 350 76.773 350 141.887 M 485 142 L 485 207 494.500 207 L 504 207 504 172.500 L 504 138 538.500 138 L 573 138 573 172.536 L 573 207.072 582.511 206.786 L 592.021 206.500 592.042 142 L 592.062 77.500 582.531 77.214 L 573 76.928 573 103.464 L 573 130 538.500 130 L 504 130 504 103.500 L 504 77 494.500 77 L 485 77 485 142 M 233.746 83.023 C 223.148 85.698, 212.760 94.590, 207.073 105.855 C 201.010 117.867, 198.171 136.307, 199.977 151.962 C 203.058 178.682, 214.150 195.287, 232.428 200.541 C 248.960 205.294, 267.765 196.238, 276.287 179.421 C 282.137 167.876, 283.500 160.899, 283.500 142.500 C 283.500 129.367, 283.098 124.021, 281.733 119 C 275.843 97.330, 261.761 83.544, 244.444 82.496 C 240.625 82.265, 235.811 82.502, 233.746 83.023 M 369 141.850 L 369 200 377.668 200 C 389.879 200, 397.973 198.368, 404.192 194.652 C 408.602 192.016, 410.052 190.367, 412.931 184.712 C 416.027 178.630, 416.385 177.085, 416.404 169.716 C 416.431 159.092, 414.213 152.565, 408.364 146.060 C 404.343 141.587, 396.853 137.006, 389.500 134.522 C 387.673 133.904, 387.759 133.713, 390.500 132.301 C 398.105 128.386, 401.781 121.997, 402.694 111.108 C 403.478 101.760, 401.678 94.745, 397.398 90.465 C 393.374 86.440, 389.366 85.191, 377.750 84.341 L 369 83.701 369 141.850 M 670.221 133.750 C 664.649 147.363, 659.797 159.287, 659.438 160.250 C 658.830 161.883, 660.225 162, 680.226 162 C 692.019 162, 701.897 161.770, 702.179 161.488 C 702.776 160.891, 681.779 109.059, 680.926 109.024 C 680.611 109.011, 675.793 120.137, 670.221 133.750 M 377.605 279.087 C 374.522 286.896, 372 293.671, 372 294.142 C 372 294.614, 373.314 295, 374.921 295 C 377.353 295, 377.951 294.498, 378.500 292 C 379.152 289.031, 379.227 289, 385.860 289 C 392.388 289, 392.591 289.078, 393.694 292 C 394.614 294.439, 395.402 295, 397.905 295 L 400.984 295 399.504 291.250 C 398.690 289.188, 396.093 282.550, 393.733 276.500 C 389.635 265.996, 389.301 265.486, 386.326 265.194 L 383.210 264.889 377.605 279.087 M 301 280.500 L 301 295 304 295 C 306.970 295, 307 294.944, 307 289.500 L 307 284 310.250 284.028 C 313.106 284.053, 313.902 284.720, 316.812 289.528 C 319.617 294.165, 320.572 295, 323.062 295 C 324.678 295, 326 294.805, 326 294.566 C 326 294.328, 324.622 291.916, 322.937 289.206 L 319.875 284.279 323.063 281.091 C 325.910 278.244, 326.190 277.456, 325.688 273.712 C 324.806 267.132, 322.634 266, 310.889 266 L 301 266 301 280.500 M 340 280.533 L 340 295.066 351.250 294.783 C 361.739 294.519, 362.500 294.365, 362.500 292.500 C 362.500 290.685, 361.737 290.473, 354.250 290.210 L 346 289.919 346 286.507 L 346 283.095 352.250 282.798 C 357.864 282.530, 358.533 282.271, 358.820 280.250 C 359.123 278.113, 358.810 278, 352.570 278 L 346 278 346 273.928 L 346 269.856 351.396 270.530 C 358.553 271.425, 363 270.424, 363 267.921 C 363 266.138, 362.175 266, 351.500 266 L 340 266 340 280.533 M 413 280.500 L 413 295 423.500 295 L 434 295 434 292.500 C 434 290.056, 433.833 290, 426.500 290 L 419 290 419 278 L 419 266 416 266 L 413 266 413 280.500 M 440 268.500 C 440 270.833, 440.333 271, 445 271 L 450 271 450 283 L 450 295 453 295 L 456 295 456 283 L 456 271 461 271 C 465.667 271, 466 270.833, 466 268.500 L 466 266 453 266 L 440 266 440 268.500 M 476 266.611 C 476 266.947, 478.250 270.947, 481 275.500 C 485.422 282.822, 486 284.426, 486 289.389 C 486 294.957, 486.023 295, 489 295 C 491.965 295, 492 294.936, 492 289.573 C 492 284.801, 492.615 283.143, 497.102 275.823 C 499.908 271.246, 502.410 267.163, 502.661 266.750 C 502.912 266.337, 501.629 266.005, 499.809 266.012 C 496.801 266.023, 496.200 266.570, 493.196 272.038 C 491.379 275.346, 489.495 277.806, 489.008 277.505 C 488.521 277.204, 486.712 274.492, 484.988 271.479 C 482.312 266.803, 481.425 266, 478.927 266 C 477.317 266, 476 266.275, 476 266.611 M 307 275.124 L 307 280.248 312.592 279.784 C 318.445 279.299, 319.958 278.161, 319.985 274.225 C 320.003 271.521, 316.746 270, 310.935 270 L 307 270 307 275.124 M 383.735 277.884 C 381.333 284.647, 381.445 285, 386 285 C 388.531 285, 390.002 284.541, 390.005 283.750 C 390.012 281.946, 386.710 273, 386.037 273 C 385.725 273, 384.689 275.198, 383.735 277.884" stroke="none" fill="none" fill-rule="evenodd"/></svg>